<?xml version="1.0" encoding="utf-8"?>
<!-- Generator: Adobe Illustrator 16.0.0, SVG Export Plug-In . SVG Version: 6.00 Build 0)  -->
<!DOCTYPE svg PUBLIC "-//W3C//DTD SVG 1.1//EN" "http://www.w3.org/Graphics/SVG/1.1/DTD/svg11.dtd">
<svg version="1.1" id="Calque_1" xmlns="http://www.w3.org/2000/svg" xmlns:xlink="http://www.w3.org/1999/xlink" x="0px" y="0px"
	 width="1278px" height="500px" viewBox="0 0 1278 500" enable-background="new 0 0 1278 500" xml:space="preserve">
<g id="Calque_2" display="none">
	<rect display="inline" fill="#D6E3F6" width="1278" height="500"/>
</g>
<g>
	
		<linearGradient id="SVGID_1_" gradientUnits="userSpaceOnUse" x1="-793.2842" y1="167.5" x2="428.9922" y2="167.5" gradientTransform="matrix(-1 0 0 -1 862.2158 334)">
		<stop  offset="0" style="stop-color:#07A1E2"/>
		<stop  offset="0.5487" style="stop-color:#505050"/>
	</linearGradient>
	
		<line fill="none" stroke="url(#SVGID_1_)" stroke-width="7" stroke-miterlimit="10" x1="433.224" y1="166.5" x2="1655.5" y2="166.5"/>
	
		<linearGradient id="SVGID_2_" gradientUnits="userSpaceOnUse" x1="-793.2842" y1="160.5" x2="428.9922" y2="160.5" gradientTransform="matrix(-1 0 0 -1 862.2158 334)">
		<stop  offset="0" style="stop-color:#EFD51F"/>
		<stop  offset="0.5675" style="stop-color:#505050"/>
	</linearGradient>
	
		<line fill="none" stroke="url(#SVGID_2_)" stroke-width="7" stroke-miterlimit="10" x1="433.224" y1="173.5" x2="1655.5" y2="173.5"/>
	
		<linearGradient id="SVGID_3_" gradientUnits="userSpaceOnUse" x1="-793.2842" y1="153.5" x2="428.9922" y2="153.5" gradientTransform="matrix(-1 0 0 -1 862.2158 334)">
		<stop  offset="0" style="stop-color:#C60086"/>
		<stop  offset="0.2629" style="stop-color:#D5CFEC"/>
		<stop  offset="0.7866" style="stop-color:#505050"/>
	</linearGradient>
	
		<line fill="none" stroke="url(#SVGID_3_)" stroke-width="7" stroke-miterlimit="10" x1="433.224" y1="180.5" x2="1655.5" y2="180.5"/>
</g>
<g>
	
		<linearGradient id="SVGID_4_" gradientUnits="userSpaceOnUse" x1="-127.5225" y1="-136.498" x2="1043.7158" y2="-136.498" gradientTransform="matrix(1 0 0 -1 -192.9775 334)">
		<stop  offset="0" style="stop-color:#07A1E2"/>
		<stop  offset="0.5487" style="stop-color:#505050"/>
	</linearGradient>
	
		<line fill="none" stroke="url(#SVGID_4_)" stroke-width="7" stroke-miterlimit="10" x1="850.738" y1="470.498" x2="-320.5" y2="470.498"/>
	
		<linearGradient id="SVGID_5_" gradientUnits="userSpaceOnUse" x1="-127.5225" y1="-149.498" x2="1043.7158" y2="-149.498" gradientTransform="matrix(1 0 0 -1 -192.9775 334)">
		<stop  offset="0" style="stop-color:#EFD51F"/>
		<stop  offset="1" style="stop-color:#505050"/>
	</linearGradient>
	
		<line fill="none" stroke="url(#SVGID_5_)" stroke-width="7" stroke-miterlimit="10" x1="850.738" y1="483.498" x2="-320.5" y2="483.498"/>
	
		<linearGradient id="SVGID_6_" gradientUnits="userSpaceOnUse" x1="-127.5225" y1="-162.498" x2="1043.7158" y2="-162.498" gradientTransform="matrix(1 0 0 -1 -192.9775 334)">
		<stop  offset="0" style="stop-color:#C60086"/>
		<stop  offset="0.7866" style="stop-color:#505050"/>
	</linearGradient>
	
		<line fill="none" stroke="url(#SVGID_6_)" stroke-width="7" stroke-miterlimit="10" x1="850.738" y1="496.498" x2="-320.5" y2="496.498"/>
</g>
<path id="help-4-icon" fill="#A0006C" stroke="#C60086" stroke-width="2" stroke-miterlimit="10" d="M310.75,335
	C289.9,335,273,351.901,273,372.75s16.9,37.75,37.75,37.75s37.75-16.901,37.75-37.75S331.6,335,310.75,335z M310.75,405.71
	c-18.215,0-32.96-14.766-32.96-32.96c0-18.215,14.765-32.96,32.96-32.96c18.215,0,32.96,14.765,32.96,32.96
	C343.71,390.965,328.945,405.71,310.75,405.71z M311.099,394.04c-2.503,0-4.534-2.03-4.534-4.534c0-2.503,2.03-4.533,4.534-4.533
	c2.504,0,4.534,2.03,4.534,4.533C315.632,392.01,313.603,394.04,311.099,394.04z M314.663,380.64v0.815c0,0-6.798,0-7.474,0v-0.815
	c0-2.308,0.338-5.268,3.017-7.842c2.68-2.574,6.028-4.701,6.028-7.916c0-3.556-2.468-5.435-5.578-5.435
	c-5.183,0-5.522,5.375-5.65,6.559h-7.268c0.193-5.604,2.562-13.446,12.962-13.446c9.012,0,13.063,6.036,13.063,11.695
	C323.762,373.265,314.663,374.829,314.663,380.64z"/>
<path id="lifebuoy-icon" fill="#31429C" stroke="#07A1E2" stroke-width="2" stroke-miterlimit="10" d="M105,334
	c-21.526,0-39,17.459-39,39c0,21.533,17.465,39,39,39c21.524,0,39-17.457,39-39C144,351.476,126.542,334,105,334z M119.19,387.189
	c-7.835,7.836-20.532,7.85-28.38,0c-7.837-7.838-7.846-20.533,0-28.381c7.841-7.842,20.537-7.844,28.38,0
	C127.026,366.646,127.037,379.344,119.19,387.189z M120.194,342.269l-4.697,8.246c-6.61-3.094-14.377-3.097-20.995,0.001
	l-4.697-8.247C99.163,337.631,110.521,337.475,120.194,342.269z M74.246,357.852l8.247,4.698c-3.083,6.625-3.116,14.54,0.204,21.326
	l-8.239,4.694C69.635,379.136,69.419,367.631,74.246,357.852z M90.047,403.85l4.7-8.252c6.474,2.943,14.022,2.947,20.505,0
	l4.7,8.252C110.685,408.352,99.551,408.465,90.047,403.85z M127.303,383.877c3.313-6.775,3.293-14.688,0.204-21.326l8.247-4.699
	c4.669,9.459,4.772,20.971-0.211,30.721L127.303,383.877z"/>
<g>
	<path fill="#FFFFFF" d="M298.333,309.594l-1.344-4.031h-8.095l-1.376,4.031h-4.64l8.287-22.781h3.488l8.319,22.781H298.333z
		 M293.022,293.531l-2.88,8.287h5.664L293.022,293.531z"/>
	<path fill="#FFFFFF" d="M310.942,309.787c-2.624,0-4.992-0.289-7.104-2.4l2.72-2.721c1.376,1.377,3.167,1.568,4.448,1.568
		c1.44,0,2.944-0.48,2.944-1.729c0-0.832-0.448-1.407-1.76-1.536l-2.624-0.256c-3.008-0.288-4.864-1.602-4.864-4.672
		c0-3.455,3.04-5.312,6.432-5.312c2.592,0,4.768,0.447,6.368,1.951l-2.56,2.592c-0.96-0.862-2.432-1.119-3.872-1.119
		c-1.664,0-2.368,0.77-2.368,1.601c0,0.606,0.256,1.312,1.728,1.438l2.624,0.258c3.295,0.318,4.959,2.078,4.959,4.896
		C318.013,308.025,314.877,309.787,310.942,309.787z"/>
	<path fill="#FFFFFF" d="M331.517,309.594l-4.096-6.943l-1.76,1.984v4.959h-4.16v-22.781h4.16v12.928l5.536-6.814h5.021
		l-5.952,6.721l6.4,9.949L331.517,309.594L331.517,309.594z"/>
</g>
<g>
	<path fill="#FFFFFF" d="M32.427,310.476c-3.456,0-6.08-0.734-8.319-3.008l2.88-2.88c1.44,1.439,3.392,1.92,5.503,1.92
		c2.624,0,4.032-0.992,4.032-2.814c0-0.801-0.224-1.473-0.704-1.92c-0.448-0.416-0.96-0.641-2.016-0.801l-2.752-0.385
		c-1.952-0.287-3.392-0.896-4.416-1.887c-1.088-1.088-1.632-2.561-1.632-4.48c0-4.062,3.008-6.91,7.936-6.91
		c3.136,0,5.407,0.768,7.359,2.654l-2.816,2.784c-1.44-1.376-3.167-1.567-4.671-1.567c-2.368,0-3.52,1.312-3.52,2.879
		c0,0.576,0.192,1.185,0.672,1.633c0.448,0.416,1.184,0.769,2.112,0.896l2.688,0.385c2.08,0.287,3.392,0.862,4.352,1.76
		c1.216,1.152,1.76,2.815,1.76,4.832C40.875,307.98,37.195,310.476,32.427,310.476z"/>
	<path fill="#FFFFFF" d="M54.347,310.283v-1.535c-1.088,1.152-2.624,1.728-4.16,1.728c-1.664,0-3.008-0.544-3.936-1.472
		c-1.344-1.344-1.696-2.912-1.696-4.736v-10.653h4.16v10.079c0,2.271,1.44,3.04,2.751,3.04c1.312,0,2.784-0.77,2.784-3.04v-10.079
		h4.16v16.67L54.347,310.283L54.347,310.283z"/>
	<path fill="#FFFFFF" d="M75.338,308.972c-0.928,0.93-2.432,1.504-4.063,1.504c-1.696,0-2.944-0.447-4.032-1.663v7.582h-4.16
		v-22.781h4.032v1.568c1.152-1.281,2.4-1.761,4.16-1.761c1.632,0,3.136,0.576,4.063,1.504c1.664,1.664,1.696,4.513,1.696,7.007
		C77.034,304.428,77.002,307.309,75.338,308.972z M70.059,297.164c-2.496,0-2.816,2.049-2.816,4.768c0,2.721,0.32,4.802,2.816,4.802
		s2.815-2.081,2.815-4.802C72.875,299.213,72.555,297.164,70.059,297.164z"/>
	<path fill="#FFFFFF" d="M93.258,308.972c-0.928,0.93-2.432,1.504-4.063,1.504c-1.696,0-2.944-0.447-4.032-1.663v7.582h-4.16
		v-22.781h4.032v1.568c1.152-1.281,2.4-1.761,4.16-1.761c1.632,0,3.136,0.576,4.063,1.504c1.664,1.664,1.696,4.513,1.696,7.007
		C94.954,304.428,94.922,307.309,93.258,308.972z M87.979,297.164c-2.496,0-2.816,2.049-2.816,4.768c0,2.721,0.32,4.802,2.816,4.802
		s2.815-2.081,2.815-4.802C90.794,299.213,90.475,297.164,87.979,297.164z"/>
	<path fill="#FFFFFF" d="M110.442,308.428c-1.024,1.088-2.72,2.048-5.184,2.048c-2.464,0-4.128-0.96-5.152-2.048
		c-1.504-1.567-1.888-3.455-1.888-6.496c0-3.008,0.384-4.895,1.888-6.463c1.024-1.088,2.688-2.048,5.152-2.048
		c2.464,0,4.16,0.96,5.184,2.048c1.504,1.568,1.888,3.455,1.888,6.463C112.33,304.973,111.946,306.859,110.442,308.428z
		 M107.21,297.9c-0.48-0.48-1.12-0.736-1.952-0.736s-1.44,0.256-1.92,0.736c-0.864,0.863-0.96,2.305-0.96,4.031
		c0,1.729,0.096,3.199,0.96,4.063c0.48,0.479,1.088,0.736,1.92,0.736s1.472-0.257,1.952-0.736c0.864-0.864,0.96-2.336,0.96-4.063
		C108.17,300.205,108.075,298.766,107.21,297.9z"/>
	<path fill="#FFFFFF" d="M125.354,298.156c-0.64-0.641-1.184-0.992-2.208-0.992c-1.28,0-2.688,0.961-2.688,3.072v10.047h-4.16
		v-16.67h4.063v1.6c0.8-0.96,2.4-1.792,4.192-1.792c1.632,0,2.784,0.416,3.937,1.567L125.354,298.156z"/>
	<path fill="#FFFFFF" d="M136.074,310.283c-3.392,0-4.832-2.399-4.832-4.768v-8.256h-1.76v-3.168h1.76v-4.928h4.16v4.928h2.944
		v3.168h-2.944v7.999c0,0.961,0.448,1.504,1.44,1.504h1.504v3.521H136.074L136.074,310.283z"/>
	<path fill="#FFFFFF" d="M159.146,310.283v-1.535c-1.088,1.152-2.624,1.728-4.16,1.728c-1.664,0-3.008-0.544-3.936-1.472
		c-1.344-1.344-1.696-2.912-1.696-4.736v-10.653h4.16v10.079c0,2.271,1.44,3.04,2.751,3.04c1.312,0,2.784-0.77,2.784-3.04v-10.079
		h4.16v16.67L159.146,310.283L159.146,310.283z"/>
	<path fill="#FFFFFF" d="M173.354,310.476c-2.624,0-4.992-0.287-7.104-2.398l2.72-2.722c1.376,1.378,3.167,1.568,4.448,1.568
		c1.44,0,2.944-0.479,2.944-1.729c0-0.831-0.448-1.407-1.76-1.535l-2.624-0.256c-3.008-0.288-4.864-1.6-4.864-4.672
		c0-3.455,3.04-5.312,6.432-5.312c2.592,0,4.768,0.448,6.368,1.952l-2.56,2.592c-0.96-0.864-2.432-1.12-3.872-1.12
		c-1.664,0-2.368,0.77-2.368,1.6c0,0.608,0.256,1.312,1.728,1.44l2.624,0.257c3.295,0.319,4.959,2.08,4.959,4.896
		C180.425,308.716,177.29,310.476,173.354,310.476z"/>
</g>
<g>
	<path fill="#FFFFFF" d="M488.203,307.884c-1.824,1.889-4,2.592-6.432,2.592c-2.495,0-4.543-0.896-6.144-2.494
		c-2.304-2.306-2.24-5.152-2.24-9.089c0-3.936-0.063-6.783,2.24-9.088c1.601-1.6,3.583-2.494,6.144-2.494
		c5.279,0,7.968,3.455,8.575,7.295h-4.479c-0.512-2.145-1.824-3.328-4.097-3.328c-1.216,0-2.207,0.479-2.848,1.217
		c-0.864,0.96-1.088,2.016-1.088,6.398s0.224,5.473,1.088,6.433c0.641,0.735,1.632,1.184,2.848,1.184
		c1.345,0,2.433-0.479,3.168-1.278c0.735-0.832,1.023-1.856,1.023-3.041v-0.863h-4.191v-3.711h8.607v3.326
		C490.378,304.236,489.803,306.221,488.203,307.884z"/>
	<path fill="#FFFFFF" d="M497.835,303.244c0,2.145,1.312,3.712,3.648,3.712c1.823,0,2.72-0.513,3.774-1.567l2.528,2.463
		c-1.696,1.696-3.328,2.624-6.335,2.624c-3.937,0-7.711-1.792-7.711-8.544c0-5.438,2.943-8.511,7.264-8.511
		c4.641,0,7.263,3.392,7.263,7.968v1.855H497.835L497.835,303.244z M503.787,298.604c-0.448-0.99-1.376-1.728-2.784-1.728
		s-2.336,0.735-2.784,1.728c-0.256,0.608-0.352,1.057-0.384,1.793h6.335C504.139,299.66,504.043,299.213,503.787,298.604z"/>
	<path fill="#FFFFFF" d="M517.323,310.283c-3.393,0-4.832-2.399-4.832-4.768v-8.256h-1.76v-3.168h1.76v-4.928h4.16v4.928h2.943
		v3.168h-2.943v7.999c0,0.961,0.447,1.504,1.439,1.504h1.504v3.521H517.323L517.323,310.283z"/>
	<path fill="#FFFFFF" d="M530.731,290.766v-3.393h4.255v3.393H530.731z M530.795,310.283v-16.67h4.16v16.67H530.795z"/>
	<path fill="#FFFFFF" d="M549.29,310.283v-10.078c0-2.271-1.44-3.041-2.752-3.041c-1.312,0-2.784,0.77-2.784,3.041v10.078h-4.16
		v-16.67h4.063v1.535c1.088-1.151,2.624-1.729,4.16-1.729c1.663,0,3.008,0.544,3.936,1.473c1.344,1.344,1.696,2.911,1.696,4.735
		v10.654L549.29,310.283L549.29,310.283z"/>
	<path fill="#FFFFFF" d="M565.13,310.283h-3.264l-6.145-16.67h4.385l3.392,10.303l3.36-10.303h4.384L565.13,310.283z"/>
	<path fill="#FFFFFF" d="M584.905,308.428c-1.024,1.088-2.72,2.048-5.185,2.048c-2.464,0-4.128-0.96-5.151-2.048
		c-1.504-1.567-1.889-3.455-1.889-6.496c0-3.008,0.385-4.895,1.889-6.463c1.023-1.088,2.688-2.048,5.151-2.048
		s4.16,0.96,5.185,2.048c1.504,1.568,1.888,3.455,1.888,6.463C586.793,304.973,586.409,306.859,584.905,308.428z M581.673,297.9
		c-0.479-0.48-1.12-0.736-1.952-0.736s-1.439,0.256-1.92,0.736c-0.864,0.863-0.96,2.305-0.96,4.031c0,1.729,0.096,3.199,0.96,4.063
		c0.48,0.479,1.088,0.736,1.92,0.736s1.473-0.257,1.952-0.736c0.864-0.864,0.96-2.336,0.96-4.063
		C582.633,300.205,582.538,298.766,581.673,297.9z"/>
	<path fill="#FFFFFF" d="M595.466,310.283c-3.424,0-4.864-2.399-4.864-4.768v-18.015h4.16v17.758c0,0.992,0.416,1.504,1.473,1.504
		h1.6v3.521H595.466L595.466,310.283z"/>
	<path fill="#FFFFFF" d="M607.08,310.283h-3.264l-6.145-16.67h4.384l3.393,10.303l3.359-10.303h4.385L607.08,310.283z"/>
	<path fill="#FFFFFF" d="M618.6,303.244c0,2.145,1.312,3.712,3.648,3.712c1.824,0,2.72-0.513,3.775-1.567l2.527,2.463
		c-1.695,1.696-3.328,2.624-6.335,2.624c-3.936,0-7.711-1.792-7.711-8.544c0-5.438,2.944-8.511,7.264-8.511
		c4.641,0,7.264,3.392,7.264,7.968v1.855H618.6L618.6,303.244z M624.552,298.604c-0.448-0.99-1.376-1.728-2.784-1.728
		c-1.407,0-2.336,0.735-2.783,1.728c-0.256,0.608-0.353,1.057-0.385,1.793h6.336C624.904,299.66,624.808,299.213,624.552,298.604z"
		/>
	<path fill="#FFFFFF" d="M642.088,310.283v-1.567c-1.152,1.28-2.369,1.76-4.128,1.76c-1.632,0-3.167-0.574-4.096-1.504
		c-1.664-1.663-1.696-4.544-1.696-7.04c0-2.494,0.032-5.343,1.696-7.007c0.928-0.928,2.432-1.504,4.063-1.504
		c1.695,0,2.977,0.448,4.063,1.664v-7.583h4.159v22.781H642.088L642.088,310.283z M639.144,297.164
		c-2.495,0-2.815,2.049-2.815,4.768c0,2.721,0.32,4.802,2.815,4.802s2.849-2.081,2.849-4.802
		C641.991,299.213,641.639,297.164,639.144,297.164z"/>
</g>
<path id="user-icon_1_" fill="#B1A62B" stroke="#EFD51F" stroke-width="2" stroke-miterlimit="10" d="M589.076,392.382
	c-11.244-2.594-21.709-4.865-16.642-14.421c15.429-29.087,4.091-44.642-12.202-44.642c-16.613,0-27.674,16.151-12.203,44.642
	c5.221,9.615-5.64,11.883-16.641,14.421c-11.238,2.591-10.375,8.519-10.375,19.27h78.436
	C599.45,400.898,600.314,394.973,589.076,392.382z"/>
</svg>
