<?xml version="1.0" encoding="utf-8"?>
<!-- Generator: Adobe Illustrator 16.0.0, SVG Export Plug-In . SVG Version: 6.00 Build 0)  -->
<!DOCTYPE svg PUBLIC "-//W3C//DTD SVG 1.1//EN" "http://www.w3.org/Graphics/SVG/1.1/DTD/svg11.dtd">
<svg version="1.1" id="Calque_1" xmlns="http://www.w3.org/2000/svg" xmlns:xlink="http://www.w3.org/1999/xlink" x="0px" y="0px"
	 width="1278px" height="500px" viewBox="0 0 1278 500" enable-background="new 0 0 1278 500" xml:space="preserve">
<g id="Calque_2" display="none">
	<rect display="inline" fill="#D6E3F6" width="1278" height="500"/>
</g>
<g>
	
		<linearGradient id="SVGID_1_" gradientUnits="userSpaceOnUse" x1="-701.5" y1="278.5" x2="568.0557" y2="278.5" gradientTransform="matrix(1 0 0 -1 243 445)">
		<stop  offset="0" style="stop-color:#07A1E2"/>
		<stop  offset="0.5487" style="stop-color:#505050"/>
	</linearGradient>
	
		<line fill="none" stroke="url(#SVGID_1_)" stroke-width="7" stroke-miterlimit="10" x1="-458.5" y1="166.5" x2="811.056" y2="166.5"/>
	
		<linearGradient id="SVGID_2_" gradientUnits="userSpaceOnUse" x1="-701.5" y1="271.5" x2="568.0557" y2="271.5" gradientTransform="matrix(1 0 0 -1 243 445)">
		<stop  offset="0" style="stop-color:#EFD51F"/>
		<stop  offset="0.5675" style="stop-color:#505050"/>
	</linearGradient>
	
		<line fill="none" stroke="url(#SVGID_2_)" stroke-width="7" stroke-miterlimit="10" x1="-458.5" y1="173.5" x2="811.056" y2="173.5"/>
	
		<linearGradient id="SVGID_3_" gradientUnits="userSpaceOnUse" x1="-701.5" y1="264.5" x2="568.0557" y2="264.5" gradientTransform="matrix(1 0 0 -1 243 445)">
		<stop  offset="0" style="stop-color:#C60086"/>
		<stop  offset="0.2629" style="stop-color:#D5CFEC"/>
		<stop  offset="0.7866" style="stop-color:#505050"/>
	</linearGradient>
	
		<line fill="none" stroke="url(#SVGID_3_)" stroke-width="7" stroke-miterlimit="10" x1="-458.5" y1="180.5" x2="811.056" y2="180.5"/>
</g>
<g>
	
		<linearGradient id="SVGID_4_" gradientUnits="userSpaceOnUse" x1="-453.3066" y1="-25.498" x2="840.749" y2="-25.498" gradientTransform="matrix(-1 0 0 -1 1284.1934 445)">
		<stop  offset="0" style="stop-color:#07A1E2"/>
		<stop  offset="0.5487" style="stop-color:#505050"/>
	</linearGradient>
	
		<line fill="none" stroke="url(#SVGID_4_)" stroke-width="7" stroke-miterlimit="10" x1="1737.5" y1="470.498" x2="443.444" y2="470.498"/>
	
		<linearGradient id="SVGID_5_" gradientUnits="userSpaceOnUse" x1="-453.3066" y1="-38.498" x2="840.749" y2="-38.498" gradientTransform="matrix(-1 0 0 -1 1284.1934 445)">
		<stop  offset="0" style="stop-color:#EFD51F"/>
		<stop  offset="1" style="stop-color:#505050"/>
	</linearGradient>
	
		<line fill="none" stroke="url(#SVGID_5_)" stroke-width="7" stroke-miterlimit="10" x1="1737.5" y1="483.498" x2="443.444" y2="483.498"/>
	
		<linearGradient id="SVGID_6_" gradientUnits="userSpaceOnUse" x1="-453.3066" y1="-51.498" x2="840.749" y2="-51.498" gradientTransform="matrix(-1 0 0 -1 1284.1934 445)">
		<stop  offset="0" style="stop-color:#C60086"/>
		<stop  offset="0.7866" style="stop-color:#505050"/>
	</linearGradient>
	
		<line fill="none" stroke="url(#SVGID_6_)" stroke-width="7" stroke-miterlimit="10" x1="1737.5" y1="496.498" x2="443.444" y2="496.498"/>
</g>
<g id="Calque_1_1_">
	<g>
		<path fill="#FFFFFF" d="M299.106,311.727l-1.357-4.07h-8.177l-1.39,4.07h-4.688l8.371-23.012h3.523l8.402,23.012H299.106z
			 M293.741,295.502l-2.909,8.372h5.72L293.741,295.502z"/>
		<path fill="#FFFFFF" d="M314.395,311.727v-1.55c-1.099,1.162-2.649,1.745-4.201,1.745c-1.681,0-3.039-0.551-3.976-1.486
			c-1.357-1.358-1.711-2.941-1.711-4.783v-10.764h4.2v10.182c0,2.294,1.455,3.069,2.78,3.069c1.326,0,2.812-0.775,2.812-3.069
			v-10.182h4.201v16.838H314.395L314.395,311.727z"/>
		<path fill="#FFFFFF" d="M326.871,311.727c-3.427,0-4.88-2.424-4.88-4.814v-8.339h-1.777v-3.2h1.777v-4.977h4.201v4.977h2.974v3.2
			h-2.974v8.08c0,0.969,0.453,1.52,1.454,1.52h1.52v3.555L326.871,311.727L326.871,311.727z"/>
		<path fill="#FFFFFF" d="M342.896,309.854c-1.034,1.099-2.748,2.068-5.237,2.068c-2.489,0-4.169-0.971-5.202-2.068
			c-1.519-1.582-1.908-3.489-1.908-6.562c0-3.038,0.389-4.944,1.908-6.528c1.032-1.1,2.714-2.068,5.202-2.068
			c2.487,0,4.202,0.97,5.237,2.068c1.519,1.584,1.906,3.49,1.906,6.528C344.802,306.363,344.416,308.271,342.896,309.854z
			 M339.632,299.221c-0.484-0.484-1.132-0.742-1.972-0.742c-0.84,0-1.453,0.258-1.939,0.742c-0.871,0.872-0.97,2.327-0.97,4.071
			c0,1.747,0.099,3.231,0.97,4.104c0.485,0.483,1.099,0.742,1.939,0.742c0.84,0,1.487-0.259,1.972-0.742
			c0.873-0.873,0.97-2.359,0.97-4.104S340.505,300.093,339.632,299.221z"/>
		<path fill="#FFFFFF" d="M366.781,311.727v-10.18c0-2.295-1.453-3.07-2.78-3.07c-1.292,0-2.811,0.775-2.811,2.975v10.275h-4.201
			v-10.18c0-2.295-1.454-3.07-2.781-3.07c-1.325,0-2.811,0.775-2.811,3.07v10.18h-4.202v-16.838h4.103v1.551
			c1.1-1.131,2.651-1.744,4.202-1.744c1.874,0,3.393,0.678,4.46,2.131c1.421-1.485,2.94-2.131,5.042-2.131
			c1.681,0,3.2,0.549,4.137,1.486c1.358,1.356,1.843,2.939,1.843,4.783v10.762H366.781L366.781,311.727z"/>
		<path fill="#FFFFFF" d="M382.523,311.727v-1.452c-1.131,1.131-2.198,1.616-4.137,1.616c-1.908,0-3.297-0.484-4.299-1.487
			c-0.905-0.938-1.39-2.294-1.39-3.781c0-2.683,1.842-4.878,5.752-4.878h3.975v-0.842c0-1.844-0.905-2.65-3.135-2.65
			c-1.616,0-2.36,0.389-3.231,1.391l-2.683-2.619c1.648-1.811,3.264-2.326,6.076-2.326c4.719,0,7.176,2.002,7.176,5.945v11.088
			h-4.105L382.523,311.727L382.523,311.727z M382.425,304.617h-3.329c-1.519,0-2.358,0.712-2.358,1.906
			c0,1.164,0.775,1.938,2.422,1.938c1.163,0,1.908-0.096,2.651-0.808c0.451-0.42,0.613-1.1,0.613-2.135L382.425,304.617
			L382.425,304.617z"/>
		<path fill="#FFFFFF" d="M394.805,311.727c-3.426,0-4.88-2.424-4.88-4.814v-8.339h-1.777v-3.2h1.777v-4.977h4.201v4.977h2.975v3.2
			h-2.975v8.08c0,0.969,0.453,1.52,1.456,1.52h1.519v3.555L394.805,311.727L394.805,311.727z"/>
		<path fill="#FFFFFF" d="M402.492,304.617c0,2.166,1.324,3.75,3.684,3.75c1.841,0,2.748-0.521,3.813-1.584l2.553,2.489
			c-1.712,1.712-3.361,2.648-6.4,2.648c-3.975,0-7.79-1.809-7.79-8.63c0-5.494,2.975-8.598,7.339-8.598
			c4.686,0,7.336,3.429,7.336,8.047v1.876L402.492,304.617L402.492,304.617z M408.504,299.932c-0.453-1.002-1.39-1.746-2.812-1.746
			c-1.423,0-2.359,0.744-2.812,1.746c-0.258,0.613-0.354,1.066-0.387,1.812h6.398C408.858,300.997,408.762,300.545,408.504,299.932z
			"/>
	</g>
	<g>
		<path fill="#FFFFFF" d="M485.27,311.922c-3.49,0-6.141-0.745-8.403-3.039l2.909-2.908c1.455,1.452,3.426,1.938,5.559,1.938
			c2.651,0,4.073-1.001,4.073-2.843c0-0.811-0.228-1.487-0.711-1.939c-0.453-0.421-0.97-0.646-2.037-0.811l-2.78-0.387
			c-1.971-0.291-3.427-0.904-4.459-1.906c-1.099-1.1-1.648-2.588-1.648-4.525c0-4.104,3.038-6.979,8.017-6.979
			c3.167,0,5.462,0.774,7.434,2.683l-2.846,2.812c-1.453-1.391-3.198-1.584-4.717-1.584c-2.393,0-3.558,1.326-3.558,2.91
			c0,0.58,0.194,1.195,0.68,1.646c0.451,0.42,1.195,0.777,2.132,0.906l2.716,0.387c2.102,0.291,3.426,0.872,4.395,1.779
			c1.229,1.162,1.778,2.842,1.778,4.877C493.8,309.4,490.084,311.922,485.27,311.922z"/>
		<path fill="#FFFFFF" d="M504.727,311.727v-1.452c-1.131,1.131-2.197,1.616-4.137,1.616c-1.907,0-3.298-0.484-4.299-1.487
			c-0.905-0.938-1.389-2.294-1.389-3.781c0-2.683,1.843-4.878,5.752-4.878h3.976v-0.842c0-1.844-0.905-2.65-3.135-2.65
			c-1.617,0-2.36,0.389-3.231,1.391l-2.683-2.619c1.647-1.811,3.264-2.326,6.076-2.326c4.718,0,7.176,2.002,7.176,5.945v11.088
			h-4.105L504.727,311.727L504.727,311.727z M504.629,304.617H501.3c-1.518,0-2.358,0.712-2.358,1.906
			c0,1.164,0.775,1.938,2.423,1.938c1.164,0,1.907-0.096,2.649-0.808c0.453-0.42,0.614-1.1,0.614-2.135L504.629,304.617
			L504.629,304.617z"/>
		<path fill="#FFFFFF" d="M519.013,311.727h-3.298l-6.204-16.838h4.429l3.427,10.407l3.392-10.407h4.428L519.013,311.727z"/>
		<path fill="#FFFFFF" d="M529.033,304.617c0,2.166,1.325,3.75,3.683,3.75c1.844,0,2.747-0.521,3.813-1.584l2.554,2.489
			c-1.713,1.712-3.362,2.648-6.399,2.648c-3.977,0-7.789-1.809-7.789-8.63c0-5.494,2.974-8.598,7.338-8.598
			c4.686,0,7.336,3.429,7.336,8.047v1.876L529.033,304.617L529.033,304.617z M535.043,299.932c-0.453-1.002-1.389-1.746-2.811-1.746
			c-1.424,0-2.359,0.744-2.812,1.746c-0.258,0.613-0.354,1.066-0.388,1.812h6.398C535.4,300.997,535.302,300.545,535.043,299.932z"
			/>
		<path fill="#FFFFFF" d="M552.982,311.727c-3.428,0-4.882-2.424-4.882-4.814v-8.339h-1.778v-3.2h1.778v-4.977h4.202v4.977h2.974
			v3.2h-2.974v8.08c0,0.969,0.452,1.52,1.453,1.52h1.521v3.555L552.982,311.727L552.982,311.727z"/>
		<path fill="#FFFFFF" d="M557.411,292.012v-3.426h4.298v3.426H557.411z M557.477,311.727v-16.838h4.199v16.838H557.477z"/>
		<path fill="#FFFFFF" d="M584.332,311.727v-10.18c0-2.295-1.454-3.07-2.779-3.07c-1.292,0-2.811,0.775-2.811,2.975v10.275h-4.201
			v-10.18c0-2.295-1.454-3.07-2.78-3.07s-2.812,0.775-2.812,3.07v10.18h-4.201v-16.838h4.104v1.551
			c1.1-1.131,2.65-1.744,4.201-1.744c1.874,0,3.395,0.678,4.459,2.131c1.422-1.485,2.942-2.131,5.042-2.131
			c1.682,0,3.202,0.549,4.14,1.486c1.355,1.356,1.843,2.939,1.843,4.783v10.762H584.332L584.332,311.727z"/>
		<path fill="#FFFFFF" d="M594.742,304.617c0,2.166,1.325,3.75,3.684,3.75c1.842,0,2.747-0.521,3.813-1.584l2.553,2.489
			c-1.713,1.712-3.362,2.648-6.4,2.648c-3.975,0-7.786-1.809-7.786-8.63c0-5.494,2.973-8.598,7.337-8.598
			c4.686,0,7.335,3.429,7.335,8.047v1.876L594.742,304.617L594.742,304.617z M600.752,299.932c-0.452-1.002-1.389-1.746-2.81-1.746
			c-1.425,0-2.36,0.744-2.813,1.746c-0.258,0.613-0.354,1.066-0.387,1.812h6.398C601.109,300.997,601.013,300.545,600.752,299.932z"
			/>
	</g>
	<line fill="none" stroke="#FFFFFF" stroke-width="2" stroke-miterlimit="10" x1="83.544" y1="342.717" x2="110.781" y2="415.384"/>
	<g>
		<path fill="#FFFFFF" d="M72.418,311.922c-3.491,0-6.141-0.745-8.402-3.039l2.909-2.908c1.454,1.452,3.426,1.938,5.558,1.938
			c2.651,0,4.073-1.001,4.073-2.843c0-0.811-0.228-1.487-0.711-1.939c-0.453-0.421-0.97-0.646-2.037-0.811l-2.78-0.387
			c-1.972-0.291-3.426-0.904-4.46-1.906c-1.099-1.1-1.648-2.588-1.648-4.525c0-4.104,3.038-6.979,8.017-6.979
			c3.167,0,5.46,0.774,7.432,2.683l-2.843,2.812c-1.455-1.391-3.2-1.584-4.72-1.584c-2.391,0-3.555,1.326-3.555,2.91
			c0,0.58,0.193,1.195,0.678,1.646c0.453,0.42,1.196,0.777,2.132,0.906l2.715,0.387c2.101,0.291,3.426,0.872,4.396,1.779
			c1.228,1.162,1.778,2.842,1.778,4.877C80.951,309.4,77.234,311.922,72.418,311.922z"/>
		<path fill="#FFFFFF" d="M92.91,311.727V301.45c0-2.229-1.423-2.974-2.748-2.974c-1.325,0-2.715,0.777-2.715,2.974v10.278h-4.201
			v-23.015h4.201v7.726c1.13-1.162,2.553-1.746,4.039-1.746c3.685,0,5.625,2.586,5.625,6.141v10.893H92.91L92.91,311.727z"/>
		<path fill="#FFFFFF" d="M108.651,311.727v-1.452c-1.132,1.131-2.2,1.616-4.138,1.616c-1.908,0-3.298-0.484-4.299-1.487
			c-0.905-0.938-1.39-2.294-1.39-3.781c0-2.683,1.842-4.878,5.752-4.878h3.976v-0.842c0-1.844-0.905-2.65-3.136-2.65
			c-1.616,0-2.359,0.389-3.231,1.391l-2.682-2.619c1.648-1.811,3.263-2.326,6.076-2.326c4.719,0,7.175,2.002,7.175,5.945v11.088
			h-4.104L108.651,311.727L108.651,311.727z M108.553,304.617h-3.329c-1.52,0-2.359,0.712-2.359,1.906
			c0,1.164,0.776,1.938,2.423,1.938c1.163,0,1.907-0.096,2.65-0.808c0.452-0.42,0.613-1.1,0.613-2.135v-0.903L108.553,304.617
			L108.553,304.617z"/>
		<path fill="#FFFFFF" d="M124.812,299.479c-0.647-0.647-1.197-1.002-2.23-1.002c-1.293,0-2.716,0.971-2.716,3.104v10.146h-4.201
			v-16.838h4.104v1.617c0.809-0.971,2.424-1.811,4.234-1.811c1.648,0,2.811,0.42,3.975,1.582L124.812,299.479z"/>
		<path fill="#FFFFFF" d="M131.049,304.617c0,2.166,1.325,3.75,3.684,3.75c1.843,0,2.748-0.521,3.813-1.584l2.553,2.489
			c-1.713,1.712-3.361,2.648-6.399,2.648c-3.976,0-7.789-1.809-7.789-8.63c0-5.494,2.973-8.598,7.336-8.598
			c4.687,0,7.336,3.429,7.336,8.047v1.876L131.049,304.617L131.049,304.617z M137.06,299.932c-0.453-1.002-1.39-1.746-2.811-1.746
			c-1.422,0-2.359,0.744-2.811,1.746c-0.26,0.613-0.356,1.066-0.389,1.812h6.399C137.417,300.997,137.319,300.545,137.06,299.932z"
			/>
		<path fill="#FFFFFF" d="M156.422,311.922c-3.362,0-7.532-1.809-7.532-8.63c0-6.819,4.169-8.597,7.532-8.597
			c2.326,0,4.071,0.711,5.558,2.26l-2.843,2.846c-0.873-0.938-1.616-1.324-2.714-1.324c-1.003,0-1.778,0.355-2.393,1.1
			c-0.646,0.809-0.937,1.939-0.937,3.717c0,1.778,0.291,2.94,0.937,3.749c0.615,0.743,1.39,1.099,2.393,1.099
			c1.098,0,1.841-0.388,2.714-1.323l2.843,2.811C160.493,311.177,158.748,311.922,156.422,311.922z"/>
		<path fill="#FFFFFF" d="M174.68,309.854c-1.034,1.099-2.748,2.068-5.236,2.068c-2.489,0-4.169-0.971-5.204-2.068
			c-1.519-1.582-1.907-3.489-1.907-6.562c0-3.038,0.388-4.944,1.907-6.528c1.035-1.1,2.715-2.068,5.204-2.068
			c2.488,0,4.201,0.97,5.236,2.068c1.52,1.584,1.907,3.49,1.907,6.528C176.586,306.363,176.199,308.271,174.68,309.854z
			 M171.416,299.221c-0.484-0.484-1.13-0.742-1.971-0.742c-0.841,0-1.455,0.258-1.939,0.742c-0.873,0.872-0.969,2.327-0.969,4.071
			c0,1.747,0.096,3.231,0.969,4.104c0.484,0.483,1.099,0.742,1.939,0.742c0.84,0,1.487-0.259,1.971-0.742
			c0.873-0.873,0.97-2.359,0.97-4.104S172.288,300.093,171.416,299.221z"/>
		<path fill="#FFFFFF" d="M188.289,311.727v-1.582c-1.164,1.293-2.392,1.777-4.169,1.777c-1.648,0-3.2-0.583-4.137-1.52
			c-1.681-1.682-1.713-4.59-1.713-7.11s0.033-5.396,1.713-7.077c0.937-0.938,2.457-1.52,4.104-1.52c1.712,0,3.005,0.451,4.104,1.681
			v-7.661h4.202v23.012H188.289L188.289,311.727z M185.314,298.477c-2.521,0-2.843,2.068-2.843,4.815
			c0,2.749,0.322,4.848,2.843,4.848s2.876-2.099,2.876-4.848C188.19,300.545,187.836,298.477,185.314,298.477z"/>
		<path fill="#FFFFFF" d="M198.792,304.617c0,2.166,1.325,3.75,3.685,3.75c1.841,0,2.748-0.521,3.813-1.584l2.552,2.489
			c-1.711,1.712-3.36,2.648-6.398,2.648c-3.975,0-7.79-1.809-7.79-8.63c0-5.494,2.974-8.598,7.337-8.598
			c4.686,0,7.336,3.429,7.336,8.047v1.876L198.792,304.617L198.792,304.617z M204.804,299.932c-0.452-1.002-1.39-1.746-2.812-1.746
			c-1.422,0-2.359,0.744-2.812,1.746c-0.258,0.613-0.355,1.066-0.388,1.812h6.4C205.16,300.997,205.063,300.545,204.804,299.932z"/>
	</g>
	<line fill="none" stroke="#FFFFFF" stroke-width="2" stroke-miterlimit="10" x1="94.429" y1="345.008" x2="180.492" y2="371.502"/>
	
		<rect x="73.443" y="333.086" fill="#B1A62B" stroke="#EFD51F" stroke-width="2" stroke-miterlimit="10" width="27.284" height="27.277"/>
	
		<line fill="none" stroke="#FFFFFF" stroke-width="2" stroke-miterlimit="10" x1="180.492" y1="368.137" x2="114.947" y2="408.414"/>
	
		<rect x="96.958" y="392.573" fill="#A0006C" stroke="#C60086" stroke-width="2" stroke-miterlimit="10" width="27.277" height="27.283"/>
	
		<rect x="160.253" y="357.443" fill="#31429C" stroke="#07A1E2" stroke-width="2" stroke-miterlimit="10" width="27.279" height="27.281"/>
	<circle fill="none" cx="332.87" cy="364.673" r="12.464"/>
	<path fill="#A0006C" stroke="#C60086" stroke-width="2" stroke-miterlimit="10" d="M394.921,390.359
		c-1.002-0.354-1.809-1.122-2.216-2.104c-0.001,0-0.001,0-0.001-0.001c-0.407-0.985-0.378-2.099,0.079-3.061l1.198-2.521
		l-3.443-3.44l-2.518,1.197c-0.963,0.456-2.076,0.485-3.062,0.078h-0.001c-0.983-0.407-1.747-1.214-2.104-2.218l-0.936-2.628h-4.865
		l-0.935,2.628c-0.357,1.004-1.123,1.811-2.104,2.218h-0.001c-0.984,0.407-2.098,0.38-3.061-0.078l-2.52-1.197l-3.44,3.44
		l1.197,2.521c0.458,0.962,0.487,2.074,0.077,3.061v0.001c-0.407,0.984-1.213,1.747-2.217,2.104l-2.629,0.936v4.866l2.629,0.934
		c1.002,0.356,1.81,1.122,2.217,2.104c0,0,0,0.001,0,0.003c0.41,0.984,0.381,2.097-0.077,3.06l-1.197,2.521l3.44,3.439l2.52-1.196
		c0.963-0.457,2.077-0.485,3.062-0.077c0,0,0,0,0.001,0c0.983,0.407,1.748,1.212,2.105,2.215l0.934,2.63h4.866l0.929-2.611
		c0.36-1.011,1.133-1.825,2.123-2.239h0.001c0.978-0.406,2.078-0.377,3.032,0.075l2.535,1.205l3.442-3.439l-1.199-2.521
		c-0.458-0.962-0.486-2.072-0.078-3.058l0,0c0.41-0.985,1.215-1.751,2.219-2.108l2.628-0.933v-4.866L394.921,390.359z
		 M379.484,400.353c-3.66,0-6.625-2.966-6.625-6.625c0-3.658,2.965-6.624,6.625-6.624c3.66,0,6.626,2.967,6.626,6.624
		C386.11,397.387,383.144,400.353,379.484,400.353z"/>
	<path fill="#31429C" stroke="#07A1E2" stroke-miterlimit="10" d="M359.77,406.579c-0.001-0.002-0.001-0.005-0.003-0.006
		c-0.102-0.379,0.011-0.782,0.292-1.055l1.382-1.338l-1.333-2.31l-1.832,0.523c-0.388,0.11-0.807,0.003-1.092-0.281c0,0,0,0,0-0.002
		c-0.273-0.271-0.378-0.67-0.271-1.041l0.531-1.861l-2.31-1.333l-1.33,1.374c-0.275,0.285-0.685,0.4-1.067,0.297
		c-0.002,0-0.004,0-0.006-0.001c-0.378-0.102-0.673-0.4-0.767-0.78l-0.466-1.863h-2.667l-0.464,1.855
		c-0.097,0.383-0.396,0.688-0.779,0.789c0,0-0.003,0.002-0.006,0.002c-0.377,0.104-0.779-0.011-1.052-0.292l-1.336-1.384
		l-2.31,1.335l0.523,1.831c0.11,0.388,0.002,0.806-0.283,1.092l0,0c-0.273,0.273-0.671,0.377-1.042,0.271l-1.861-0.53l-1.333,2.31
		l1.376,1.329c0.284,0.277,0.398,0.687,0.295,1.068c0,0.002-0.001,0.003-0.001,0.006c-0.101,0.379-0.4,0.672-0.78,0.769
		l-1.866,0.467v2.667l1.856,0.465c0.385,0.096,0.688,0.394,0.791,0.778c0,0.002,0,0.004,0,0.005
		c0.103,0.379-0.011,0.779-0.292,1.054l-1.383,1.336l1.333,2.311l1.832-0.523c0.387-0.11,0.806-0.002,1.091,0.281l0.001,0.001
		c0.273,0.273,0.376,0.673,0.27,1.043l-0.531,1.861l2.31,1.332l1.331-1.375c0.274-0.282,0.683-0.397,1.066-0.295
		c0.001,0,0.004,0,0.006,0c0.378,0.104,0.671,0.399,0.767,0.779l0.468,1.865h2.667l0.463-1.857c0.098-0.385,0.394-0.688,0.778-0.788
		c0.002-0.001,0.004-0.001,0.005-0.004c0.377-0.101,0.78,0.011,1.052,0.292l1.336,1.383l2.31-1.333l-0.523-1.834
		c-0.11-0.386-0.002-0.806,0.282-1.091c0,0,0,0,0-0.001c0.273-0.273,0.672-0.377,1.042-0.271l1.861,0.531l1.333-2.311l-1.375-1.33
		c-0.284-0.275-0.398-0.685-0.296-1.068c0,0,0.001-0.004,0.002-0.005c0.102-0.38,0.4-0.672,0.779-0.766l1.866-0.468v-2.667
		l-1.857-0.465C360.174,407.26,359.871,406.962,359.77,406.579z M350.164,413.964c-2.656,0-4.809-2.155-4.809-4.811
		c0-2.653,2.153-4.809,4.809-4.809c2.656,0,4.808,2.154,4.808,4.809C354.972,411.809,352.82,413.964,350.164,413.964z"/>
	<g>
		<g>
			<path fill="#B1A62B" stroke="#EFD51F" stroke-miterlimit="10" d="M361.908,358.338c-1.885-0.671-3.403-2.109-4.169-3.959
				c0,0,0-0.002,0-0.003c-0.769-1.853-0.715-3.945,0.146-5.757l2.252-4.739l-6.473-6.472l-4.738,2.252
				c-1.811,0.862-3.907,0.915-5.76,0.147c0-0.003-0.001-0.003-0.001-0.003c-1.851-0.768-3.288-2.28-3.958-4.168l-1.759-4.946h-9.153
				l-1.759,4.946c-0.671,1.885-2.11,3.4-3.959,4.168c0,0-0.001,0-0.002,0.003c-1.854,0.768-3.946,0.716-5.758-0.147l-4.739-2.253
				l-6.472,6.473l2.252,4.738c0.862,1.81,0.916,3.905,0.148,5.759c0,0,0,0.002-0.001,0.003c-0.767,1.851-2.282,3.287-4.168,3.958
				l-4.95,1.759v9.153l4.945,1.757c1.887,0.672,3.403,2.112,4.171,3.961v0.002c0.768,1.853,0.713,3.944-0.146,5.757l-2.253,4.739
				l6.472,6.473l4.739-2.253c1.81-0.861,3.906-0.913,5.759-0.146c0,0,0.001,0,0.002,0c1.85,0.768,3.288,2.281,3.958,4.168
				l1.76,4.946h9.152l1.749-4.914c0.675-1.903,2.129-3.436,3.994-4.211c0.001,0,0.001,0,0.003,0
				c1.835-0.766,3.909-0.711,5.703,0.143l4.769,2.268l6.472-6.473l-2.253-4.74c-0.861-1.812-0.913-3.902-0.146-5.756
				c0.001,0,0.001,0,0.001-0.001c0.769-1.851,2.286-3.291,4.174-3.964l4.942-1.759v-9.151L361.908,358.338z M332.87,377.136
				c-6.883,0-12.464-5.58-12.464-12.463s5.58-12.464,12.464-12.464c6.883,0,12.462,5.581,12.462,12.464
				S339.753,377.136,332.87,377.136z"/>
		</g>
		<g>
			<path fill="#B1A62B" stroke="#EFD51F" stroke-width="2" stroke-miterlimit="10" d="M361.908,358.338
				c-1.885-0.671-3.403-2.109-4.169-3.959c0,0,0-0.002,0-0.003c-0.769-1.853-0.715-3.945,0.146-5.757l2.252-4.739l-6.473-6.472
				l-4.738,2.252c-1.811,0.862-3.907,0.915-5.76,0.147c0-0.003-0.001-0.003-0.001-0.003c-1.851-0.768-3.288-2.28-3.958-4.168
				l-1.759-4.946h-9.153l-1.759,4.946c-0.671,1.885-2.11,3.4-3.959,4.168c0,0-0.001,0-0.002,0.003
				c-1.854,0.768-3.946,0.716-5.758-0.147l-4.739-2.253l-6.472,6.473l2.252,4.738c0.862,1.81,0.916,3.905,0.148,5.759
				c0,0,0,0.002-0.001,0.003c-0.767,1.851-2.282,3.287-4.168,3.958l-4.95,1.759v9.153l4.945,1.757
				c1.887,0.672,3.403,2.112,4.171,3.961v0.002c0.768,1.853,0.713,3.944-0.146,5.757l-2.253,4.739l6.472,6.473l4.739-2.253
				c1.81-0.861,3.906-0.913,5.759-0.146c0,0,0.001,0,0.002,0c1.85,0.768,3.288,2.281,3.958,4.168l1.76,4.946h9.152l1.749-4.914
				c0.675-1.903,2.129-3.436,3.994-4.211c0.001,0,0.001,0,0.003,0c1.835-0.766,3.909-0.711,5.703,0.143l4.769,2.268l6.472-6.473
				l-2.253-4.74c-0.861-1.812-0.913-3.902-0.146-5.756c0.001,0,0.001,0,0.001-0.001c0.769-1.851,2.286-3.291,4.174-3.964
				l4.942-1.759v-9.151L361.908,358.338z M332.87,377.136c-6.883,0-12.464-5.58-12.464-12.463s5.58-12.464,12.464-12.464
				c6.883,0,12.462,5.581,12.462,12.464S339.753,377.136,332.87,377.136z"/>
		</g>
	</g>
	<path id="time-11-icon" fill="#31429C" stroke="#07A1E2" stroke-width="2" stroke-miterlimit="10" d="M564.587,407.866h-46.44
		v-9.549c0-4.425,1.497-8.78,4.219-12.271l9.086-11.657c1.63-2.092,1.617-5.005-0.027-7.084l-8.96-11.304
		c-2.783-3.513-4.314-7.914-4.314-12.397v-9.472h46.44v9.473c0,4.482-1.534,8.885-4.315,12.396l-8.959,11.307
		c-1.647,2.078-1.659,4.991-0.027,7.084l9.085,11.654c2.72,3.491,4.218,7.85,4.218,12.272v9.548H564.587L564.587,407.866z
		 M525.305,398.917h32.125c0-3.109-0.661-5.85-2.705-8.47l-9.086-11.655c-3.668-4.704-3.641-11.257,0.063-15.932l8.958-11.307
		c2.076-2.618,2.768-5.405,2.768-8.475h-32.124c0,3.088,0.704,5.869,2.771,8.475l8.958,11.307
		c3.705,4.675,3.729,11.228,0.062,15.932l-9.085,11.655C525.956,393.081,525.305,395.827,525.305,398.917z"/>
</g>
</svg>
