<?xml version="1.0" encoding="utf-8"?>
<!-- Generator: Adobe Illustrator 16.0.0, SVG Export Plug-In . SVG Version: 6.00 Build 0)  -->
<!DOCTYPE svg PUBLIC "-//W3C//DTD SVG 1.1//EN" "http://www.w3.org/Graphics/SVG/1.1/DTD/svg11.dtd">
<svg version="1.1" id="Calque_1" xmlns="http://www.w3.org/2000/svg" xmlns:xlink="http://www.w3.org/1999/xlink" x="0px" y="0px"
	 width="187.241px" height="55.759px" viewBox="3.906 7.862 187.241 55.759" enable-background="new 3.906 7.862 187.241 55.759"
	 xml:space="preserve">
<rect x="36.317" y="10.87" fill="none" width="152.756" height="29.797"/>
<g enable-background="new    ">
	<path fill="#FFFFFF" d="M38.642,30.804V10.869h13.132v3.472h-9.24v4.678h7.868v3.472h-7.868v4.845h9.24v3.474H38.642V30.804z"/>
	<path fill="#FFFFFF" d="M62.329,30.804l-2.688-4.368l-2.66,4.368h-4.368l5.04-7.448l-4.844-7.142h4.368l2.464,4.174l2.492-4.174
		h4.368l-4.844,7.142l5.04,7.448H62.329z"/>
	<path fill="#FFFFFF" d="M72.661,30.804c-2.968,0-4.228-2.102-4.228-4.174v-7.224h-1.54v-2.772h1.54v-4.312h3.64v4.312h2.576v2.772
		h-2.576v7c0,0.84,0.392,1.315,1.26,1.315h1.316v3.078h-1.988V30.804z"/>
	<path fill="#FFFFFF" d="M79.74,24.644c0,1.876,1.148,3.248,3.192,3.248c1.596,0,2.38-0.448,3.304-1.372l2.212,2.154
		c-1.484,1.484-2.912,2.298-5.544,2.298c-3.444,0-6.748-1.568-6.748-7.478c0-4.761,2.576-7.448,6.356-7.448
		c4.06,0,6.356,2.97,6.356,6.974v1.624H79.74z M84.948,20.585c-0.392-0.868-1.204-1.513-2.436-1.513
		c-1.232,0-2.044,0.645-2.436,1.513c-0.224,0.532-0.308,0.924-0.336,1.567h5.544C85.256,21.509,85.172,21.117,84.948,20.585z"/>
	<path fill="#FFFFFF" d="M99.732,30.804v-8.82c0-1.987-1.26-2.659-2.408-2.659s-2.436,0.672-2.436,2.659v8.82h-3.641V16.217h3.556
		v1.346c0.952-1.01,2.295-1.514,3.639-1.514c1.457,0,2.634,0.478,3.445,1.288c1.176,1.178,1.483,2.548,1.483,4.146v9.324
		L99.732,30.804L99.732,30.804z"/>
	<path fill="#FFFFFF" d="M114.375,30.804v-1.372c-1.008,1.118-2.069,1.54-3.61,1.54c-1.429,0-2.771-0.506-3.584-1.316
		c-1.455-1.455-1.483-3.976-1.483-6.159c0-2.185,0.028-4.677,1.483-6.132c0.812-0.812,2.129-1.316,3.557-1.316
		c1.484,0,2.604,0.394,3.558,1.456v-6.636h3.64v19.938L114.375,30.804L114.375,30.804z M111.798,19.325
		c-2.185,0-2.463,1.792-2.463,4.172s0.278,4.199,2.463,4.199c2.186,0,2.492-1.819,2.492-4.199S113.984,19.325,111.798,19.325z"/>
	<path fill="#FFFFFF" d="M126.807,30.972c-3.024,0-5.319-0.646-7.28-2.634l2.52-2.521c1.263,1.261,2.971,1.681,4.816,1.681
		c2.297,0,3.528-0.868,3.528-2.464c0-0.7-0.196-1.288-0.616-1.681c-0.393-0.363-0.84-0.562-1.764-0.7l-2.408-0.336
		c-1.708-0.252-2.969-0.783-3.863-1.651c-0.953-0.952-1.429-2.24-1.429-3.92c0-3.557,2.632-6.048,6.944-6.048
		c2.744,0,4.73,0.672,6.438,2.323l-2.464,2.437c-1.26-1.204-2.771-1.372-4.088-1.372c-2.071,0-3.08,1.147-3.08,2.521
		c0,0.504,0.168,1.036,0.588,1.429c0.394,0.363,1.036,0.672,1.851,0.783l2.352,0.336c1.82,0.253,2.968,0.757,3.809,1.54
		c1.063,1.009,1.539,2.465,1.539,4.229C134.199,28.789,130.979,30.972,126.807,30.972z"/>
	<path fill="#FFFFFF" d="M142.403,30.972c-2.911,0-6.524-1.568-6.524-7.478s3.613-7.448,6.524-7.448c2.017,0,3.528,0.616,4.815,1.96
		l-2.463,2.466c-0.756-0.812-1.4-1.147-2.354-1.147c-0.866,0-1.54,0.308-2.069,0.951c-0.562,0.7-0.812,1.681-0.812,3.221
		s0.252,2.548,0.812,3.248c0.529,0.646,1.203,0.951,2.069,0.951c0.952,0,1.599-0.336,2.354-1.147l2.463,2.438
		C145.931,30.329,144.419,30.972,142.403,30.972z"/>
	<path fill="#FFFFFF" d="M156.992,20.192c-0.561-0.562-1.037-0.867-1.933-0.867c-1.12,0-2.353,0.84-2.353,2.688v8.792h-3.642V16.217
		h3.558v1.4c0.698-0.841,2.101-1.568,3.668-1.568c1.428,0,2.437,0.364,3.442,1.372L156.992,20.192z"/>
	<path fill="#FFFFFF" d="M160.77,13.724v-2.97h3.724v2.97H160.77z M160.826,30.804V16.217h3.641v14.59L160.826,30.804
		L160.826,30.804z"/>
	<path fill="#FFFFFF" d="M178.271,29.656c-0.812,0.812-2.129,1.316-3.557,1.316c-1.484,0-2.576-0.394-3.527-1.456v6.636h-3.641
		V16.217h3.525v1.372c1.01-1.12,2.102-1.54,3.643-1.54c1.428,0,2.744,0.504,3.557,1.316c1.455,1.455,1.482,3.947,1.482,6.132
		C179.753,25.68,179.726,28.201,178.271,29.656z M173.65,19.325c-2.184,0-2.463,1.792-2.463,4.172s0.279,4.199,2.463,4.199
		c2.186,0,2.465-1.819,2.465-4.199S175.833,19.325,173.65,19.325z"/>
	<path fill="#FFFFFF" d="M186.81,30.804c-2.969,0-4.229-2.102-4.229-4.174v-7.224h-1.539v-2.772h1.539v-4.312h3.641v4.312h2.576
		v2.772h-2.576v7c0,0.84,0.393,1.315,1.26,1.315h1.316v3.078h-1.988V30.804L186.81,30.804z"/>
</g>
<rect x="30.765" y="32.612" fill="none" width="277.104" height="135.374"/>
<g enable-background="new    ">
	<path fill="#FFFFFF" d="M36.641,33.826v2.084c-0.244,0.795-0.501,2.105-0.773,3.932c-0.05,0.31-0.272,1.192-0.666,2.653
		c0.021,0.15,0.036,0.38,0.043,0.688c-0.129,0.528-0.276,1.332-0.44,2.404c-0.015,0.401-0.021,0.769-0.021,1.098
		c0,0.907,0.05,1.551,0.15,1.923c-0.05,0.086-0.093,0.2-0.129,0.344c0.165,0.172,0.247,0.387,0.247,0.646
		c0,0.32-0.093,0.608-0.279,0.862c-0.187,0.255-0.408,0.382-0.666,0.382c-0.129,0-0.344-0.099-0.645-0.296
		c-0.301-0.194-0.494-0.374-0.58-0.529c-0.021-0.071-0.068-0.533-0.14-1.388c-0.115-0.144-0.172-0.234-0.172-0.277v-2.602
		l1.536-9.926c0.122-0.473,0.186-0.759,0.193-0.859v-0.011c0-0.079-0.025-0.279-0.075-0.602l-0.075-0.526l0.634-1.278l0.29-0.159
		c0.236,0,0.559,0.188,0.967,0.567C36.44,33.328,36.641,33.618,36.641,33.826z"/>
	<path fill="#FFFFFF" d="M41.423,44.289c0.021,0.086,0.068,1.812,0.14,5.178c0,0.009,0,0.017,0,0.021
		c0,0.129-0.079,0.516-0.236,1.16l-0.279,0.062c-0.007,0.007-0.021,0.013-0.043,0.013c-0.144,0-0.455-0.092-0.935-0.271
		c0.007-0.021,0.011-0.047,0.011-0.075c0-0.148-0.079-0.348-0.236-0.591c-0.244-0.365-0.38-0.602-0.408-0.709
		c-0.007-0.021-0.011-0.068-0.011-0.14c0-0.224,0.028-0.666,0.086-1.332c0.114-1.354,0.279-2.571,0.494-3.652
		c0.193-0.258,0.433-0.387,0.72-0.387C41.04,43.569,41.273,43.809,41.423,44.289z M42.111,39.412c0,0.179-0.211,0.509-0.634,0.988
		c-0.709-0.2-1.063-0.498-1.063-0.894c0-0.38,0.143-0.814,0.43-1.311c0.15-0.015,0.462-0.054,0.935-0.118
		C42,38.546,42.111,38.989,42.111,39.412z"/>
	<path fill="#FFFFFF" d="M57.033,45.449c0,0.902-0.82,1.865-2.46,2.89c-1.447,0.902-2.621,1.379-3.523,1.431
		c-0.086,0.069-0.251,0.165-0.494,0.277c-0.279,0.107-0.849,0.247-1.708,0.419c-1.97,0.408-3.137,0.612-3.502,0.612
		c-0.222,0-0.439-0.109-0.65-0.327c-0.211-0.219-0.317-0.432-0.317-0.64c0-0.103,0.189-0.265,0.569-0.494l0.58-0.344
		c0-0.114-0.133-0.393-0.397-0.827c-0.158-0.265-0.236-0.576-0.236-0.937c0-0.062,0.044-0.396,0.134-0.997
		c0.089-0.604,0.134-0.941,0.134-1.021c0-0.258-0.179-0.541-0.537-0.849c0-0.043-0.042-0.204-0.124-0.483
		c-0.083-0.279-0.124-0.43-0.124-0.451c0-0.229,0.369-0.567,1.106-1.021c0.043-0.451,0.097-0.87,0.161-1.257
		c0.422-2.387,0.92-4.497,1.493-6.34c0.143-0.442,0.501-0.759,1.074-0.943c0.301,0.157,0.619,0.745,0.956,1.762
		c-0.021,0.093-0.122,0.404-0.301,0.935c-0.215,0.608-0.362,1.042-0.44,1.302c-0.029,0.363-0.101,1.046-0.215,2.041
		c-0.015,0.058-0.088,0.333-0.22,0.827c-0.133,0.492-0.199,0.743-0.199,0.752c0,0.363,0.34,0.548,1.021,0.548
		c2.585,0,4.619,0.204,6.102,0.61c0.487,0.138,0.959,0.479,1.418,1.031C56.8,44.508,57.033,45.005,57.033,45.449z M54.981,45.385
		c0-0.387-0.691-0.703-2.073-0.954C51.905,44.25,51,44.16,50.19,44.16c-0.552,0.122-0.87,0.183-0.956,0.183h-0.011
		c-0.351-0.043-0.62-0.062-0.806-0.062c-0.101,0-0.179,0.004-0.236,0.011c-0.401,0.086-0.663,0.283-0.784,0.591
		c-0.007,0.103-0.043,0.326-0.107,0.679c-0.251,1.409-0.391,2.114-0.419,2.114c-0.007,0-0.011-0.015-0.011-0.043
		c0.25,0.761,0.376,1.21,0.376,1.354h0.387c0.479-0.193,1.053-0.387,1.719-0.58c1.21-0.351,2.428-0.816,3.652-1.396
		C54.319,46.384,54.981,45.843,54.981,45.385z"/>
	<path fill="#FFFFFF" d="M73.116,44.536c-0.021,0.015-0.344,0.2-0.967,0.559l-0.193-0.183c-0.144,0.122-0.276,0.183-0.397,0.183
		c-0.072,0-0.892-0.069-2.46-0.215l-2.46-0.226c-2.142,0-3.646,0.694-4.512,2.084c-0.215,0.344-0.412,0.945-0.591,1.805
		c-0.05,0.043-0.133,0.125-0.247,0.247c0,0.479-0.09,1.121-0.269,1.923c-0.315,0.122-0.645,0.185-0.988,0.185
		c-0.781,0-1.171-0.487-1.171-1.461c0.021-0.15,0.075-0.655,0.161-1.517c0.1-1.003,0.172-1.758,0.215-2.267
		c0.394-0.888,0.752-1.332,1.074-1.332c0.379,0.157,0.594,0.236,0.645,0.236c0.021,0,0.301-0.211,0.838-0.636
		c0.565-0.308,1.188-0.623,1.869-0.943c0.659-0.315,1.432-0.475,2.32-0.475c0.258,0,2.163,0.303,5.715,0.902
		c0.021,0.036,0.082,0.101,0.183,0.193l1.117,0.129C72.998,44.21,73.037,44.478,73.116,44.536z"/>
	<path fill="#FFFFFF" d="M84.827,50.466c0,0.26-0.077,0.494-0.231,0.709c-0.154,0.217-0.328,0.322-0.521,0.322
		c-0.279-0.05-1.085-0.43-2.417-1.139c-0.767-0.401-1.186-0.616-1.257-0.646c-0.301,0-0.724,0.122-1.268,0.365
		c-0.724,0.322-1.143,0.505-1.257,0.548c-0.48,0.157-0.956,0.236-1.429,0.236c-0.602,0-1.339-0.401-2.213-1.203
		c-0.301-0.43-0.451-0.812-0.451-1.149c0-0.449,0.146-1.053,0.44-1.805c0.064-0.179,0.272-0.351,0.623-0.516l0.666-0.312
		c1.547-0.943,2.961-1.418,4.243-1.418c0.365,0,0.841,0.107,1.429,0.322c0.172,0.062,0.383,0.312,0.634,0.741
		c0.258,0.43,0.387,0.748,0.387,0.956c0,0.356-0.211,0.67-0.634,0.935c-0.881-0.494-1.568-0.741-2.062-0.741
		c-0.53,0-1.074,0.135-1.633,0.397c-0.702,0.329-1.264,0.689-1.687,1.085c0.05,0.215,0.304,0.322,0.763,0.322
		c-0.036,0-0.054-0.004-0.054-0.013c0-0.05,0.476-0.222,1.429-0.516c1.131-0.358,1.973-0.537,2.524-0.537
		c0.15,0,0.684,0.383,1.601,1.149c0.988,0.831,1.693,1.354,2.116,1.566C84.741,50.283,84.827,50.394,84.827,50.466z"/>
	<path fill="#FFFFFF" d="M101.146,44.536c-0.021,0.015-0.344,0.2-0.967,0.559l-0.193-0.183c-0.145,0.122-0.275,0.183-0.396,0.183
		c-0.07,0-0.893-0.069-2.461-0.215l-2.458-0.226c-2.142,0-3.646,0.694-4.512,2.084c-0.215,0.344-0.412,0.945-0.591,1.805
		c-0.05,0.043-0.133,0.125-0.247,0.247c0,0.479-0.09,1.121-0.269,1.923c-0.315,0.122-0.645,0.185-0.988,0.185
		c-0.781,0-1.171-0.487-1.171-1.461c0.021-0.15,0.075-0.655,0.161-1.517c0.1-1.003,0.172-1.758,0.215-2.267
		c0.394-0.888,0.752-1.332,1.074-1.332c0.379,0.157,0.594,0.236,0.645,0.236c0.021,0,0.301-0.211,0.838-0.636
		c0.565-0.308,1.188-0.623,1.869-0.943c0.659-0.315,1.432-0.475,2.32-0.475c0.258,0,2.161,0.303,5.715,0.902
		c0.021,0.036,0.082,0.101,0.185,0.193l1.115,0.129C101.028,44.21,101.067,44.478,101.146,44.536z"/>
	<path fill="#FFFFFF" d="M114.091,45.975c0,0.122-0.159,0.516-0.479,1.182c-0.317,0.666-0.582,1.149-0.788,1.45
		c-0.15,0.105-0.322,0.265-0.518,0.473c-0.114,0.286-0.415,0.909-0.902,1.869l-0.043,0.129v0.032
		c-0.027,0.007-0.104,0.125-0.225,0.354c-0.123,0.079-0.273,0.229-0.451,0.451c-0.043,0.107-0.104,0.396-0.172,0.859
		c-0.188,0-0.324,0.118-0.414,0.354c-0.09,0.236-0.266,0.691-0.521,1.364c-0.115,0.301-0.365,0.748-0.752,1.343
		c0.021,0.122,0.032,0.294,0.032,0.518c-0.106,0.144-0.255,0.376-0.44,0.696c0,0.064-0.146,0.686-0.438,1.858
		c-0.123,0.301-0.298,0.741-0.526,1.321c-0.015,0.079-0.14,0.541-0.375,1.386c-0.072,0.251-0.306,0.376-0.699,0.376
		c-0.379,0-0.703-0.14-0.971-0.419c-0.271-0.279-0.404-0.616-0.404-1.01c0-0.272,0.188-0.917,0.56-1.936
		c0.051-0.136,0.172-0.521,0.365-1.16c0.086-0.086,0.196-0.23,0.334-0.438c0.106-0.494,1.065-2.915,2.879-7.262l-0.149-0.142
		c-1.068,0.451-1.916,0.677-2.548,0.677c-0.021,0-0.196-0.043-0.524-0.129c-0.338-0.093-0.517-0.14-0.537-0.14
		c-0.016,0-0.067,0.018-0.161,0.054c-0.095,0.028-0.154,0.043-0.183,0.043c-0.315,0-0.765-0.168-1.345-0.505
		c-0.473-0.286-0.78-0.509-0.924-0.666c-0.336-0.365-0.562-0.831-0.677-1.396c0.027-0.036,0.044-0.075,0.044-0.118
		c-0.017-0.043-0.029-0.079-0.044-0.107c-0.243-0.294-0.364-0.806-0.364-1.536c0-0.752,0.046-1.233,0.14-1.448
		c0.258-0.53,0.493-0.795,0.709-0.795c0.608,0,1.006,0.544,1.192,1.633c0.043,0.243,0.106,0.799,0.192,1.665
		c0.394,0.688,0.935,1.029,1.621,1.029c0.114-0.021,0.4-0.093,0.858-0.215c0.603-0.165,0.983-0.262,1.149-0.29
		c0.81-0.144,1.607-0.469,2.396-0.978c0.353-0.222,1.019-0.648,1.998-1.278c0.106-0.148,0.274-0.354,0.507-0.61h1.073
		C113.916,45.015,114.091,45.503,114.091,45.975z"/>
</g>
<rect x="21.323" y="11.927" fill="#31429C" stroke="#07A1E2" stroke-width="2" stroke-miterlimit="10" width="11.333" height="11.333"/>
<rect x="6.134" y="11.995" fill="#B1A62B" stroke="#EFD51F" stroke-width="2" stroke-miterlimit="10" width="11.333" height="11.333"/>
<rect x="13.571" y="18.484" fill="#A0006C" stroke="#C60086" stroke-width="2" stroke-miterlimit="10" width="11.333" height="11.333"/>
</svg>
