<?xml version="1.0" encoding="utf-8"?>
<!-- Generator: Adobe Illustrator 16.0.0, SVG Export Plug-In . SVG Version: 6.00 Build 0)  -->
<!DOCTYPE svg PUBLIC "-//W3C//DTD SVG 1.1//EN" "http://www.w3.org/Graphics/SVG/1.1/DTD/svg11.dtd">
<svg version="1.1" id="Calque_1" xmlns="http://www.w3.org/2000/svg" xmlns:xlink="http://www.w3.org/1999/xlink" x="0px" y="0px"
	 width="1278px" height="500px" viewBox="0 0 1278 500" enable-background="new 0 0 1278 500" xml:space="preserve">
<g id="Calque_2" display="none">
	<rect display="inline" fill="#D6E3F6" width="1278" height="500"/>
</g>
<g>
	
		<linearGradient id="SVGID_1_" gradientUnits="userSpaceOnUse" x1="-489.7676" y1="278.5" x2="568.0557" y2="278.5" gradientTransform="matrix(1 0 0 -1 243 445)">
		<stop  offset="0" style="stop-color:#07A1E2"/>
		<stop  offset="0.5487" style="stop-color:#505050"/>
	</linearGradient>
	
		<line fill="none" stroke="url(#SVGID_1_)" stroke-width="7" stroke-miterlimit="10" x1="-246.768" y1="166.5" x2="811.056" y2="166.5"/>
	
		<linearGradient id="SVGID_2_" gradientUnits="userSpaceOnUse" x1="-489.7676" y1="271.5" x2="568.0557" y2="271.5" gradientTransform="matrix(1 0 0 -1 243 445)">
		<stop  offset="0" style="stop-color:#EFD51F"/>
		<stop  offset="0.5675" style="stop-color:#505050"/>
	</linearGradient>
	
		<line fill="none" stroke="url(#SVGID_2_)" stroke-width="7" stroke-miterlimit="10" x1="-246.768" y1="173.5" x2="811.056" y2="173.5"/>
	
		<linearGradient id="SVGID_3_" gradientUnits="userSpaceOnUse" x1="-489.7676" y1="264.5" x2="568.0557" y2="264.5" gradientTransform="matrix(1 0 0 -1 243 445)">
		<stop  offset="0" style="stop-color:#C60086"/>
		<stop  offset="0.2629" style="stop-color:#D5CFEC"/>
		<stop  offset="0.7866" style="stop-color:#505050"/>
	</linearGradient>
	
		<line fill="none" stroke="url(#SVGID_3_)" stroke-width="7" stroke-miterlimit="10" x1="-246.768" y1="180.5" x2="811.056" y2="180.5"/>
</g>
<g>
	
		<linearGradient id="SVGID_4_" gradientUnits="userSpaceOnUse" x1="-350.2266" y1="-25.498" x2="840.749" y2="-25.498" gradientTransform="matrix(-1 0 0 -1 1284.1934 445)">
		<stop  offset="0" style="stop-color:#07A1E2"/>
		<stop  offset="0.5487" style="stop-color:#505050"/>
	</linearGradient>
	
		<line fill="none" stroke="url(#SVGID_4_)" stroke-width="7" stroke-miterlimit="10" x1="1634.42" y1="470.498" x2="443.444" y2="470.498"/>
	
		<linearGradient id="SVGID_5_" gradientUnits="userSpaceOnUse" x1="-350.2266" y1="-38.498" x2="840.749" y2="-38.498" gradientTransform="matrix(-1 0 0 -1 1284.1934 445)">
		<stop  offset="0" style="stop-color:#EFD51F"/>
		<stop  offset="1" style="stop-color:#505050"/>
	</linearGradient>
	
		<line fill="none" stroke="url(#SVGID_5_)" stroke-width="7" stroke-miterlimit="10" x1="1634.42" y1="483.498" x2="443.444" y2="483.498"/>
	
		<linearGradient id="SVGID_6_" gradientUnits="userSpaceOnUse" x1="-350.2266" y1="-51.498" x2="840.749" y2="-51.498" gradientTransform="matrix(-1 0 0 -1 1284.1934 445)">
		<stop  offset="0" style="stop-color:#C60086"/>
		<stop  offset="0.7866" style="stop-color:#505050"/>
	</linearGradient>
	
		<line fill="none" stroke="url(#SVGID_6_)" stroke-width="7" stroke-miterlimit="10" x1="1634.42" y1="496.498" x2="443.444" y2="496.498"/>
</g>
<g>
	<path fill="#FFFFFF" d="M480.907,309.838v-22.781h4.448v22.781H480.907z"/>
	<path fill="#FFFFFF" d="M509.737,309.838V299.76c0-2.271-1.44-3.041-2.752-3.041c-1.28,0-2.784,0.77-2.784,2.944v10.175h-4.16
		V299.76c0-2.271-1.44-3.041-2.752-3.041c-1.312,0-2.784,0.77-2.784,3.041v10.078h-4.16v-16.67h4.063v1.535
		c1.088-1.119,2.624-1.729,4.16-1.729c1.855,0,3.359,0.672,4.416,2.112c1.407-1.473,2.911-2.112,4.991-2.112
		c1.664,0,3.167,0.545,4.097,1.473c1.344,1.344,1.823,2.912,1.823,4.736v10.653L509.737,309.838L509.737,309.838z"/>
	<path fill="#FFFFFF" d="M530.633,308.527c-0.928,0.928-2.432,1.504-4.062,1.504c-1.696,0-2.944-0.449-4.032-1.664v7.582h-4.16
		v-22.781h4.032v1.566c1.152-1.279,2.4-1.76,4.16-1.76c1.632,0,3.136,0.576,4.062,1.504c1.664,1.664,1.696,4.513,1.696,7.008
		C532.329,303.982,532.297,306.863,530.633,308.527z M525.354,296.719c-2.495,0-2.815,2.049-2.815,4.768
		c0,2.722,0.32,4.802,2.815,4.802c2.496,0,2.815-2.08,2.815-4.802C528.169,298.768,527.85,296.719,525.354,296.719z"/>
	<path fill="#FFFFFF" d="M545.354,297.711c-0.64-0.641-1.184-0.992-2.207-0.992c-1.28,0-2.688,0.961-2.688,3.072v10.047h-4.16
		v-16.67h4.063v1.6c0.8-0.959,2.399-1.791,4.191-1.791c1.633,0,2.784,0.416,3.937,1.566L545.354,297.711z"/>
	<path fill="#FFFFFF" d="M561.385,307.982c-1.023,1.088-2.72,2.049-5.184,2.049s-4.128-0.961-5.152-2.049
		c-1.504-1.568-1.888-3.455-1.888-6.496c0-3.008,0.384-4.896,1.888-6.463c1.024-1.088,2.688-2.049,5.152-2.049
		s4.16,0.961,5.184,2.049c1.504,1.567,1.889,3.455,1.889,6.463C563.271,304.527,562.889,306.414,561.385,307.982z M558.153,297.455
		c-0.48-0.48-1.12-0.736-1.952-0.736s-1.44,0.256-1.92,0.736c-0.864,0.863-0.96,2.305-0.96,4.031c0,1.729,0.096,3.199,0.96,4.063
		c0.479,0.48,1.088,0.736,1.92,0.736s1.472-0.256,1.952-0.736c0.863-0.864,0.96-2.336,0.96-4.063
		C559.113,299.76,559.017,298.318,558.153,297.455z"/>
	<path fill="#FFFFFF" d="M574.121,309.838h-3.264l-6.145-16.67h4.384l3.393,10.303l3.359-10.303h4.385L574.121,309.838z"/>
	<path fill="#FFFFFF" d="M585.641,302.799c0,2.145,1.312,3.712,3.648,3.712c1.824,0,2.72-0.513,3.775-1.567l2.527,2.464
		c-1.695,1.694-3.328,2.625-6.335,2.625c-3.936,0-7.711-1.793-7.711-8.546c0-5.438,2.944-8.51,7.264-8.51
		c4.641,0,7.264,3.392,7.264,7.967v1.855H585.641L585.641,302.799z M591.592,298.159c-0.448-0.991-1.376-1.728-2.784-1.728
		c-1.407,0-2.336,0.735-2.783,1.728c-0.257,0.608-0.353,1.056-0.385,1.792h6.335C591.944,299.215,591.848,298.768,591.592,298.159z"
		/>
</g>
<polygon id="plus-icon" fill="#B1A62B" stroke="#EFD51F" stroke-width="2" stroke-miterlimit="10" points="575.375,362.314 
	548.185,362.314 548.185,335.125 527.188,335.125 527.188,362.314 500,362.314 500,383.311 527.188,383.311 527.188,410.5 
	548.185,410.5 548.185,383.311 575.375,383.311 "/>
<g>
	<path fill="#FFFFFF" d="M74.187,310.476c-4.671,0-8.383-3.167-8.383-7.999v-14.975h4.448v14.814c0,2.623,1.536,4.191,3.936,4.191
		c2.4,0,3.968-1.568,3.968-4.191v-14.814h4.416v14.975C82.571,307.309,78.859,310.476,74.187,310.476z"/>
	<path fill="#FFFFFF" d="M92.684,310.476c-2.624,0-4.992-0.288-7.104-2.399l2.72-2.721c1.376,1.377,3.167,1.568,4.448,1.568
		c1.44,0,2.944-0.48,2.944-1.728c0-0.832-0.448-1.408-1.76-1.536l-2.624-0.256c-3.008-0.288-4.864-1.6-4.864-4.672
		c0-3.455,3.04-5.312,6.432-5.312c2.592,0,4.768,0.448,6.368,1.952l-2.56,2.592c-0.96-0.864-2.432-1.12-3.872-1.12
		c-1.664,0-2.368,0.769-2.368,1.6c0,0.608,0.256,1.312,1.728,1.44l2.624,0.256c3.295,0.32,4.959,2.08,4.959,4.896
		C99.755,308.716,96.619,310.476,92.684,310.476z"/>
	<path fill="#FFFFFF" d="M106.507,303.244c0,2.145,1.312,3.712,3.648,3.712c1.824,0,2.72-0.513,3.775-1.567l2.528,2.463
		c-1.696,1.696-3.328,2.624-6.335,2.624c-3.936,0-7.711-1.792-7.711-8.544c0-5.439,2.944-8.511,7.264-8.511
		c4.64,0,7.263,3.392,7.263,7.968v1.855H106.507z M112.459,298.604c-0.448-0.991-1.376-1.728-2.784-1.728
		c-1.408,0-2.336,0.736-2.784,1.728c-0.256,0.608-0.352,1.056-0.384,1.792h6.335C112.811,299.66,112.715,299.213,112.459,298.604z"
		/>
</g>
<g>
	<path fill="#FFFFFF" d="M277.251,310.283l-4.448-9.087h-3.2v9.087h-4.448v-22.781h8.927c4.64,0,7.392,3.167,7.392,6.975
		c0,3.2-1.952,5.184-4.16,5.984l5.087,9.822H277.251z M273.795,291.469h-4.192v6.016h4.192c1.952,0,3.231-1.248,3.231-3.008
		S275.747,291.469,273.795,291.469z"/>
	<path fill="#FFFFFF" d="M289.027,303.244c0,2.145,1.312,3.712,3.648,3.712c1.824,0,2.72-0.513,3.775-1.567l2.528,2.463
		c-1.696,1.696-3.328,2.624-6.335,2.624c-3.936,0-7.711-1.792-7.711-8.544c0-5.439,2.944-8.511,7.264-8.511
		c4.64,0,7.263,3.392,7.263,7.968v1.855H289.027z M294.979,298.604c-0.448-0.991-1.376-1.728-2.784-1.728
		c-1.408,0-2.336,0.736-2.784,1.728c-0.256,0.608-0.352,1.056-0.384,1.792h6.335C295.331,299.66,295.235,299.213,294.979,298.604z"
		/>
	<path fill="#FFFFFF" d="M311.843,310.283v-1.439c-1.12,1.12-2.176,1.6-4.096,1.6c-1.888,0-3.264-0.479-4.256-1.472
		c-0.896-0.928-1.376-2.271-1.376-3.743c0-2.656,1.824-4.832,5.696-4.832h3.936v-0.832c0-1.824-0.896-2.624-3.104-2.624
		c-1.6,0-2.335,0.384-3.2,1.376l-2.656-2.592c1.632-1.791,3.232-2.304,6.016-2.304c4.672,0,7.104,1.983,7.104,5.888v10.975H311.843z
		 M311.747,303.244h-3.296c-1.504,0-2.335,0.704-2.335,1.888c0,1.152,0.768,1.92,2.399,1.92c1.152,0,1.888-0.096,2.624-0.8
		c0.448-0.416,0.608-1.088,0.608-2.111V303.244z"/>
	<path fill="#FFFFFF" d="M329.603,310.283v-1.567c-1.152,1.28-2.368,1.76-4.128,1.76c-1.632,0-3.167-0.575-4.096-1.504
		c-1.664-1.663-1.696-4.544-1.696-7.04c0-2.495,0.032-5.343,1.696-7.007c0.928-0.928,2.432-1.504,4.064-1.504
		c1.696,0,2.976,0.448,4.063,1.664v-7.583h4.16v22.781H329.603z M326.659,297.164c-2.496,0-2.816,2.049-2.816,4.768
		c0,2.721,0.32,4.801,2.816,4.801c2.496,0,2.848-2.08,2.848-4.801C329.506,299.213,329.154,297.164,326.659,297.164z"/>
</g>
<path id="code-6-icon" fill="#A0006C" stroke="#C60086" stroke-width="2" stroke-miterlimit="10" d="M311.608,342.629V358.5H327.5
	v45.578h-47.265v-61.449H311.608 M316.235,335.225h-43.403v76.257h62.072v-57.608L316.235,335.225z M320.95,382.07l-13.489,7.164
	v-4.496l8.237-4.196l-8.237-4.164v-4.506l13.489,7.165V382.07z M286.786,379.037l13.488-7.165v4.506l-8.237,4.164l8.237,4.196v4.496
	l-13.488-7.164V379.037z"/>
<path id="pencil-6-icon" fill="#31429C" stroke="#07A1E2" stroke-width="2" stroke-miterlimit="10" d="M116.121,372.388
	l-34.742,34.741L51,414.667l8.1-29.88l34.71-34.711l5.643,5.643L66.33,388.844l-2.17,8.975l4.038,4.038l9.188-2.021l33.092-33.092
	L116.121,372.388z M121.761,366.749L133,355.508l-22.312-22.311l-11.24,11.24L121.761,366.749z"/>
</svg>
